<?xml version="1.0" standalone="no"?>
<!DOCTYPE svg PUBLIC "-//W3C//DTD SVG 20010904//EN"
 "http://www.w3.org/TR/2001/REC-SVG-20010904/DTD/svg10.dtd">
<svg version="1.0" xmlns="http://www.w3.org/2000/svg"
 width="608.000000pt" height="608.000000pt" viewBox="0 0 608.000000 608.000000"
 preserveAspectRatio="xMidYMid meet">
<metadata>
Created by potrace 1.11, written by Peter Selinger 2001-2013
</metadata>
<g transform="translate(0.000000,608.000000) scale(0.100000,-0.100000)"
fill="#000000" stroke="none">
<path d="M1970 4602 c-95 -13 -177 -69 -216 -150 -26 -52 -26 -173 1 -226 44
-90 133 -147 235 -148 262 -4 358 342 134 489 -30 19 -120 40 -154 35z m95
-114 c110 -59 117 -214 12 -292 -21 -15 -43 -21 -86 -21 -48 0 -64 5 -96 29
-44 34 -65 79 -65 138 1 121 130 201 235 146z"/>
<path d="M709 4566 c0 -15 0 -100 0 -191 0 -91 0 -192 0 -225 l1 -60 48 0 47
0 -1 247 0 248 -47 3 c-44 3 -47 2 -48 -22z"/>
<path d="M909 4573 c-1 -23 -1 -373 0 -435 l1 -48 48 0 48 0 -1 160 c0 88 0
160 1 160 0 0 48 -72 105 -160 l104 -160 48 0 47 0 0 250 0 250 -50 0 -49 0 1
-152 c0 -84 -4 -151 -8 -150 -8 3 -136 196 -183 274 -14 24 -22 28 -63 28 -39
0 -48 -3 -49 -17z"/>
<path d="M1423 4340 l0 -250 48 0 49 0 0 110 c0 124 -9 113 91 110 l57 -1 3
33 c8 62 3 67 -54 67 -104 -2 -99 -4 -95 44 l3 42 73 0 72 -1 0 48 0 48 -124
0 -123 0 0 -250z"/>
<path d="M740 3905 l0 -55 618 -1 c565 0 648 -4 541 -24 -34 -6 -59 -12 -69
-15 -3 -1 -8 -2 -12 -1 -5 0 -8 -4 -8 -10 0 -6 -7 -9 -15 -5 -8 3 -15 2 -15
-3 0 -8 -37 -24 -52 -22 -3 0 -12 -6 -18 -14 -7 -8 -17 -15 -22 -15 -5 0 -15
-6 -22 -12 -8 -7 -24 -20 -36 -28 -12 -8 -28 -21 -36 -27 -7 -7 -19 -13 -26
-13 -21 1 -89 46 -80 54 4 4 3 6 -3 4 -5 -1 -35 8 -65 22 -30 13 -57 24 -60
25 -24 5 -118 28 -130 32 -8 3 -58 5 -110 5 -109 -1 -222 -26 -315 -71 -33
-17 -63 -30 -67 -30 -5 -1 -16 -9 -26 -18 -11 -10 -38 -34 -62 -53 -24 -19
-46 -37 -49 -40 -3 -3 -24 -27 -46 -55 -21 -27 -42 -52 -46 -55 -11 -9 -88
-176 -95 -207 -1 -6 -7 -35 -14 -65 -6 -29 -11 -93 -10 -143 1 -105 3 -115 20
-175 7 -25 13 -49 15 -55 2 -9 22 -57 39 -95 35 -77 148 -210 220 -259 56 -38
138 -87 146 -88 3 0 34 -9 70 -21 36 -11 76 -23 90 -25 14 -2 -37 -5 -112 -6
l-138 -1 0 -55 0 -55 2305 0 2305 0 0 55 0 55 -2062 1 c-1668 1 -2052 3 -2008
13 30 7 72 20 93 29 20 9 37 14 37 11 0 -2 10 2 23 11 13 8 27 12 30 8 4 -3 7
-2 7 4 0 6 21 24 48 39 26 15 52 33 57 40 17 22 64 28 71 10 3 -9 10 -14 14
-11 5 3 14 0 22 -7 21 -20 94 -58 112 -58 9 0 16 -5 16 -10 0 -6 3 -9 8 -9 4
1 9 0 12 -1 3 -1 12 -3 20 -5 8 -2 26 -7 40 -10 55 -13 78 -16 157 -19 79 -3
126 2 238 27 6 2 16 6 23 10 6 5 12 5 12 0 0 -4 4 -2 9 5 4 7 18 14 29 15 12
1 22 5 22 10 0 4 5 5 10 2 6 -3 10 -1 10 5 0 6 4 9 9 5 5 -3 12 -1 16 5 8 13
55 13 55 0 0 -6 3 -9 8 -8 4 0 33 -11 64 -26 32 -15 70 -29 85 -32 14 -3 30
-7 34 -10 18 -11 102 -19 194 -18 104 1 191 18 274 55 25 11 47 19 47 17 1 -2
11 6 23 16 12 11 21 15 21 10 0 -5 4 -4 8 1 4 6 25 23 47 40 22 16 42 32 45
35 10 11 28 5 57 -20 57 -50 130 -92 218 -125 86 -33 115 -37 249 -40 129 -3
207 12 318 62 l57 25 63 -26 c118 -50 201 -66 328 -62 125 4 124 4 220 36 73
24 155 68 214 114 50 39 106 97 106 110 0 5 3 7 6 3 7 -7 70 86 103 152 11 21
17 41 14 45 -4 3 -2 6 4 6 6 0 14 15 18 33 4 17 9 34 10 37 24 71 35 227 20
305 -4 22 -8 49 -10 60 -1 11 -3 20 -4 20 -2 0 -4 10 -6 21 -3 12 -10 34 -16
50 -7 16 -13 31 -14 34 -10 30 -31 70 -61 117 -40 63 -162 193 -181 193 -7 0
-13 5 -13 10 0 6 -7 10 -15 10 -8 0 -15 4 -15 8 0 6 -77 51 -100 57 -3 1 -18
7 -35 14 -51 20 -59 23 -85 27 -14 3 -42 9 -63 14 -40 9 -211 6 -262 -5 -49
-10 -178 -57 -203 -73 -19 -13 -27 -13 -50 -2 -15 8 -29 14 -32 15 -3 1 -14 5
-25 9 -119 46 -145 50 -290 50 -112 0 -162 -5 -183 -18 -5 -3 -23 -8 -40 -11
-17 -3 -64 -22 -104 -43 -79 -40 -91 -48 -116 -74 -9 -10 -22 -18 -29 -18 -7
0 -13 -4 -13 -10 0 -17 -16 -11 -44 15 -14 13 -26 21 -26 17 0 -4 -4 -2 -8 4
-11 18 -119 84 -137 84 -8 0 -15 5 -15 12 0 6 -3 9 -6 5 -4 -3 -19 0 -35 9
-16 8 -29 12 -29 10 0 -3 -12 -1 -27 5 -16 6 -39 13 -53 17 -35 8 -228 8 -270
-1 -19 -3 -45 -9 -57 -11 -12 -3 -31 -10 -42 -16 -12 -6 -21 -8 -21 -5 0 3
-27 -8 -60 -25 -33 -16 -64 -30 -70 -30 -6 0 -39 13 -73 29 -58 27 -86 38
-105 42 -4 1 -18 5 -31 10 -13 5 -39 11 -59 14 -19 2 -37 7 -40 10 -3 3 713 5
1591 5 l1597 0 0 55 0 55 -2305 0 -2305 0 0 -55z"/>
<path d="M3510 2059 c-255 -36 -314 -382 -84 -495 135 -66 292 -8 355 131 22
48 20 175 -2 215 -63 112 -158 165 -269 149z m96 -108 c93 -42 127 -169 67
-250 -38 -49 -71 -66 -132 -66 -48 0 -64 5 -95 29 -109 83 -76 265 54 297 43
11 64 9 106 -10z"/>
<path d="M4553 2055 c-189 -43 -266 -270 -143 -425 108 -137 336 -118 426 36
32 54 43 151 24 210 -42 130 -177 208 -307 179z m98 -95 c77 -21 119 -81 119
-170 0 -86 -65 -153 -153 -156 -101 -4 -171 72 -165 177 5 65 32 110 84 137
42 22 68 24 115 12z"/>
<path d="M2729 2048 c-2 -8 -7 -37 -13 -73 -4 -22 -18 -103 -31 -180 -14 -77
-27 -156 -31 -175 -3 -19 -7 -43 -10 -52 -5 -16 2 -18 44 -18 55 0 51 -6 67
105 4 22 8 47 10 55 2 8 7 34 10 58 13 93 19 87 70 -69 l49 -150 45 3 45 3 20
60 c10 33 33 101 50 150 l30 90 7 -40 c4 -22 10 -53 13 -70 4 -16 9 -46 12
-65 19 -131 19 -130 70 -130 24 0 44 4 44 8 0 5 -4 33 -10 63 -5 30 -11 68
-14 84 -3 17 -7 39 -9 50 -3 11 -8 40 -11 65 -3 25 -13 83 -21 130 -8 47 -15
88 -15 93 0 4 -22 7 -48 7 l-49 0 -53 -157 c-29 -87 -56 -163 -59 -169 -3 -6
-31 65 -61 157 l-55 169 -47 0 c-27 0 -48 -1 -49 -2z"/>
<path d="M3842 2003 l3 -48 40 0 40 0 2 -195 c1 -107 2 -198 2 -202 1 -5 23
-8 50 -8 l50 0 0 178 c-1 97 0 189 0 203 1 23 5 25 44 25 l42 -1 1 48 1 47
-139 0 -139 0 3 -47z"/>
<path d="M4171 1800 l1 -250 49 0 49 0 0 250 0 250 -50 0 -49 0 0 -250z"/>
<path d="M4959 2040 c0 -5 -1 -111 -1 -235 0 -124 1 -232 1 -240 1 -11 13 -15
49 -15 l48 0 -1 155 c0 85 2 155 5 155 3 0 50 -70 104 -155 l100 -155 48 0 48
0 0 250 0 250 -49 0 -49 0 0 -117 c0 -65 -1 -138 -1 -162 l-1 -44 -102 161
-103 161 -47 1 c-27 0 -48 -4 -49 -10z"/>
</g>
</svg>
